<svg version="1.0" xmlns="http://www.w3.org/2000/svg"
 width="648.000000pt" height="1280.000000pt" viewBox="0 0 648.000000 1280.000000"
 preserveAspectRatio="xMidYMid meet">
<metadata>
Created by potrace 1.15, written by Peter Selinger 2001-2017
</metadata>
<g transform="translate(0.000000,1280.000000) scale(0.100000,-0.100000)"
fill="#9d174d" stroke="none">
<path d="M2135 12793 c-56 -8 -170 -45 -230 -76 -265 -133 -449 -374 -463
-607 -6 -108 9 -180 58 -278 47 -94 112 -169 192 -223 92 -63 156 -82 273 -83
115 -1 177 16 255 70 49 34 80 43 80 24 0 -5 -20 -40 -44 -77 -142 -222 -214
-497 -190 -730 l8 -78 8 60 c12 91 62 183 122 223 63 42 141 45 216 7 27 -14
52 -25 54 -25 3 0 -6 28 -19 63 -56 149 -73 354 -41 492 41 172 147 316 285
383 72 35 81 37 176 37 89 0 106 -3 155 -27 76 -37 132 -87 182 -163 l42 -64
29 51 c40 70 114 140 184 175 52 25 68 28 158 28 95 0 104 -2 178 -38 99 -48
171 -121 225 -224 95 -186 104 -399 27 -630 -14 -40 -25 -75 -25 -78 0 -2 24
7 53 20 100 47 201 27 266 -52 39 -47 71 -130 71 -186 1 -35 2 -39 12 -23 18
32 4 285 -22 395 -36 150 -100 294 -189 426 -12 17 -21 33 -21 38 0 17 39 5
78 -24 133 -97 348 -103 498 -13 197 118 307 336 282 558 -35 309 -394 626
-738 653 -152 11 -271 -36 -390 -156 -120 -120 -170 -238 -170 -396 0 -100 20
-170 65 -230 59 -77 43 -94 -45 -50 -79 40 -216 82 -329 101 -136 22 -357 15
-481 -15 -89 -22 -267 -88 -276 -103 -3 -4 -16 -8 -30 -8 -31 0 -31 20 0 57
137 164 97 460 -88 644 -125 126 -270 175 -441 152z"/>
<path d="M3145 9823 c-71 -9 -175 -33 -227 -53 -63 -23 -178 -94 -178 -110 0
-16 82 -64 277 -161 l182 -91 -54 -81 c-29 -45 -73 -122 -97 -172 -51 -102
-142 -324 -136 -331 2 -2 28 28 58 67 68 89 126 149 145 149 8 0 30 -16 50
-35 31 -32 35 -41 35 -88 0 -29 -9 -84 -20 -122 -72 -246 -124 -606 -150
-1020 -14 -229 -29 -591 -31 -722 -1 -62 -5 -113 -9 -113 -12 0 -85 85 -126
147 -20 30 -77 132 -126 226 -50 95 -112 210 -138 257 -89 159 -190 575 -221
910 -14 150 -7 374 16 488 18 92 54 200 92 275 22 44 23 52 13 105 -10 49 -8
77 10 185 12 71 20 131 17 134 -8 7 -177 -72 -261 -121 -89 -53 -146 -104
-196 -175 -22 -31 -53 -64 -69 -74 -87 -51 -529 -183 -731 -217 -36 -6 -121
-24 -190 -40 -69 -16 -176 -37 -239 -45 -63 -9 -131 -25 -151 -35 -83 -42
-118 -119 -149 -321 -11 -78 -32 -168 -49 -214 -36 -97 -53 -172 -87 -379 -14
-87 -35 -186 -45 -220 -25 -77 -25 -100 0 -154 l20 -44 -55 -56 c-30 -31 -55
-60 -55 -65 0 -5 12 -24 27 -43 l26 -35 -36 -112 c-45 -138 -81 -290 -107
-450 -25 -155 -103 -779 -130 -1042 -11 -110 -27 -273 -37 -361 -20 -194 -14
-232 52 -371 46 -98 80 -149 177 -270 32 -39 79 -103 106 -140 66 -96 363
-357 547 -480 106 -71 128 -93 128 -130 1 -73 -52 -663 -74 -828 -11 -85 -55
-344 -69 -410 -19 -89 -40 -272 -55 -474 -9 -118 -20 -233 -25 -255 -5 -23
-10 -48 -10 -58 0 -23 67 -53 177 -78 51 -12 102 -29 112 -38 18 -15 22 -43
36 -252 32 -472 97 -1142 150 -1539 8 -63 15 -121 15 -128 0 -11 323 -13 1814
-13 1720 0 1815 1 1820 18 24 77 64 413 101 842 57 661 91 968 109 987 6 7 60
20 120 28 104 15 186 41 200 63 3 6 -21 336 -54 734 -33 397 -69 851 -80 1008
l-20 285 27 23 c16 12 118 79 228 149 110 69 277 178 370 241 366 248 444 309
491 383 56 90 79 273 70 564 -6 199 -63 868 -110 1295 -14 124 -30 275 -35
335 -7 91 -14 121 -40 175 -36 76 -39 106 -10 136 l20 21 -25 38 c-34 50 -33
95 4 173 17 35 30 70 30 77 0 7 -20 26 -45 42 -27 16 -49 40 -55 57 -5 16 -10
94 -10 174 0 120 -7 189 -40 401 -75 476 -81 498 -156 580 -50 56 -73 66 -179
81 -49 6 -130 21 -180 32 -49 10 -161 30 -248 43 -276 42 -544 122 -732 218
-79 40 -115 66 -174 125 -73 73 -280 240 -396 319 -65 44 -215 123 -234 123
-6 0 19 -43 55 -96 36 -54 70 -109 76 -123 5 -14 10 -64 9 -111 0 -76 2 -89
28 -130 42 -65 60 -137 72 -285 20 -239 -2 -569 -55 -832 -91 -443 -236 -844
-392 -1078 -75 -114 -70 -119 -78 82 -25 657 -72 1103 -150 1418 -24 99 -52
220 -61 270 l-17 89 31 28 c17 15 35 28 40 28 15 0 58 -57 116 -153 53 -89
111 -164 120 -155 6 6 -79 199 -157 356 -33 68 -91 169 -128 225 l-68 102 69
22 c38 13 117 44 176 71 60 27 128 57 153 67 71 30 117 64 133 98 18 35 12 51
-7 24 -18 -24 -25 -22 -100 28 -75 50 -184 88 -300 104 -74 10 -216 12 -281 4z"/>
<path d="M2688 9753 c-27 -7 -35 -53 -13 -70 32 -22 42 -16 42 27 0 44 -3 49
-29 43z"/>
</g>
</svg>